# xmcd
#
# Track frame offsets:
#	150
#	19949
#	37138
#	53391
#	72809
#	93000
#	109200
#	127475
#	145189
#	162647
#	177307
#	196176
#	217165
#	235225
#
# Disc length: 3399 seconds
#
# Revision: 1
# Processed by: cddbd v1.5.2PL0 Copyright (c) Steve Scherf et al.
# Submitted via: audiograbber 1.83.01
#
DISCID=cf0d450e
DTITLE=FEMME FATALE - Femme Fatale
DYEAR=1988
DGENRE=Rock
TTITLE0=Waiting For The Big One
TTITLE1=Falling In and Out Of Love
TTITLE2=My Baby's Gun
TTITLE3=Back In Your Arms Again
TTITLE4=Rebel
TTITLE5=Fortune and Fame
TTITLE6=Touch And Go
TTITLE7=If
TTITLE8=Heat The Fire
TTITLE9=Cradle's Rockin'
TTITLE10=It's A Long Way To The Top (If You Wanna Rock and Roll)
TTITLE11=Chains
TTITLE12=Lady In Waiting (Demo Version)
TTITLE13=Till It's Shot (Demo Version)
EXTD=
EXTT0=
EXTT1=
EXTT2=
EXTT3=
EXTT4=
EXTT5=
EXTT6=
EXTT7=
EXTT8=
EXTT9=
EXTT10=
EXTT11=
EXTT12=
EXTT13=
PLAYORDER=
